<?xml version="1.0" standalone="no"?>
<!DOCTYPE svg PUBLIC "-//W3C//DTD SVG 20010904//EN"
 "http://www.w3.org/TR/2001/REC-SVG-20010904/DTD/svg10.dtd">
<svg version="1.0" xmlns="http://www.w3.org/2000/svg"
 width="500.000000pt" height="500.000000pt" viewBox="0 0 500.000000 500.000000"
 preserveAspectRatio="xMidYMid meet">
<metadata>
Created by potrace 1.14, written by Peter Selinger 2001-2017
</metadata>
<g transform="translate(0.000000,500.000000) scale(0.100000,-0.100000)"
fill="#000000" stroke="none">
<path d="M0 2500 l0 -2500 2500 0 2500 0 0 2500 0 2500 -2500 0 -2500 0 0
-2500z m1520 279 l0 -1142 -57 -106 c-31 -58 -65 -119 -75 -136 -17 -29 -18 8
-18 1248 l0 1277 75 0 75 0 0 -1141z m288 265 l2 -870 -75 -139 c-41 -76 -77
-141 -80 -143 -3 -3 -5 452 -5 1012 l0 1017 78 -3 77 -3 3 -871z m280 262 l2
-609 -76 -141 c-42 -77 -78 -143 -80 -145 -2 -2 -4 336 -4 753 l0 757 78 -3
77 -3 3 -609z m962 609 c0 -2 -251 -471 -558 -1042 -308 -571 -650 -1208 -762
-1415 l-202 -378 -80 0 -79 0 29 53 c37 64 353 654 535 997 167 314 274 511
407 745 210 370 460 816 523 930 27 50 49 96 50 103 0 8 21 12 69 12 37 0 68
-2 68 -5z m278 -4 c-1 -5 -345 -644 -763 -1420 l-760 -1411 -78 0 -79 0 29 53
c17 28 355 657 753 1397 397 740 729 1355 737 1368 12 20 21 22 89 22 42 0 74
-4 72 -9z m292 -5 c0 -2 -11 -23 -24 -47 -13 -24 -189 -352 -391 -729 -202
-377 -408 -759 -458 -850 -50 -91 -216 -397 -368 -680 l-277 -515 -77 -3 c-67
-3 -77 -1 -71 13 3 9 307 575 674 1258 368 683 707 1313 753 1399 l84 158 78
0 c42 0 77 -2 77 -4z m-380 -2103 c162 -301 316 -586 342 -635 l48 -88 -79 0
-78 0 -305 567 -304 568 35 67 c20 37 38 68 41 68 3 0 138 -246 300 -547z
m-275 -10 c88 -163 210 -391 272 -505 l111 -208 -78 0 -78 0 -234 436 -234
435 35 70 c20 38 38 69 41 69 3 0 77 -134 165 -297z m-140 -260 c88 -163 179
-332 202 -375 l42 -78 -78 0 -79 0 -165 307 -164 306 36 68 c20 38 38 69 41
69 3 0 77 -134 165 -297z"/>
</g>
</svg>
